<?xml version="1.0" standalone="no"?>
<!DOCTYPE svg PUBLIC "-//W3C//DTD SVG 20010904//EN"
 "http://www.w3.org/TR/2001/REC-SVG-20010904/DTD/svg10.dtd">
<svg version="1.0" xmlns="http://www.w3.org/2000/svg"
 width="120.000000pt" height="120.000000pt" viewBox="0 0 120.000000 120.000000"
 preserveAspectRatio="xMidYMid meet">
<metadata>
Created by potrace 1.11, written by Peter Selinger 2001-2013
</metadata>
<g transform="translate(0.000000,120.000000) scale(0.100000,-0.100000)"
fill="#000000" stroke="none">
<path d="M101 1110 c-6 -5 -10 -330 -3 -330 2 0 36 29 76 65 70 64 72 67 70
110 l-2 45 75 0 74 0 -3 57 -3 57 -138 0 c-77 1 -142 -1 -146 -4z"/>
<path d="M433 1112 c-18 -3 -21 -10 -21 -50 0 -26 2 -50 4 -54 2 -4 35 4 72
17 61 21 67 26 70 54 2 22 -1 31 -12 32 -47 3 -94 4 -113 1z"/>
<path d="M626 1098 c-33 -26 -12 -32 58 -14 36 9 74 16 86 16 11 0 20 3 20 8
0 4 -32 7 -72 7 -52 0 -78 -5 -92 -17z"/>
<path d="M894 1110 c-40 -6 -101 -37 -91 -46 3 -3 22 -1 43 5 38 10 101 19
157 23 15 1 27 6 27 10 0 4 -12 8 -27 9 -16 0 -37 2 -48 3 -11 1 -39 -1 -61
-4z"/>
<path d="M1130 1112 c-53 -4 -81 -12 -76 -21 3 -4 0 -8 -7 -8 -72 -1 -239 -32
-254 -47 -3 -3 -8 -25 -10 -51 l-6 -45 77 0 76 0 0 40 c0 43 21 63 42 42 14
-14 13 -121 0 -134 -5 -5 -25 -11 -43 -12 -30 -2 -34 -6 -34 -32 0 -25 4 -29
32 -32 44 -4 55 -28 51 -110 -3 -64 -4 -67 -28 -67 -24 0 -25 3 -30 75 l-5 75
-70 0 -70 -1 -1 -57 c-1 -61 14 -117 37 -139 44 -44 177 -55 246 -22 56 28 74
71 72 169 -2 81 -11 113 -36 128 -12 8 -11 12 6 28 12 11 22 30 23 42 0 12 2
36 3 52 1 17 -6 45 -17 63 -10 18 -18 34 -18 36 0 2 25 3 55 2 43 -1 55 2 55
14 0 16 -7 17 -70 12z"/>
<path d="M690 1068 c-66 -20 -90 -34 -90 -49 0 -13 15 -11 90 12 48 14 69 26
73 40 6 23 8 23 -73 -3z"/>
<path d="M487 1002 c-64 -25 -87 -48 -72 -72 4 -6 34 4 76 25 50 26 69 41 69
55 0 11 -1 20 -2 19 -2 0 -33 -12 -71 -27z"/>
<path d="M663 1007 c-58 -19 -61 -22 -59 -51 3 -38 -12 -76 -31 -76 -9 0 -13
14 -13 45 0 25 -2 45 -5 45 -3 0 -36 -15 -74 -34 l-68 -35 0 -170 c0 -116 3
-171 11 -173 6 -2 38 -3 71 -3 l60 1 3 127 c2 105 5 127 18 127 23 0 29 -31
28 -140 -1 -116 -1 -115 86 -115 l55 0 3 108 c3 115 -9 160 -47 172 -19 6 -18
8 10 33 26 23 31 36 36 95 6 77 9 76 -84 44z"/>
<path d="M180 822 c-25 -26 -53 -59 -62 -72 l-17 -25 0 24 -1 24 -19 -24
c-101 -130 -104 -322 -5 -475 35 -56 141 -164 159 -164 7 0 11 18 10 44 0 38
-7 51 -48 94 -118 127 -165 270 -127 389 16 50 30 64 25 24 -5 -41 6 -39 30 6
11 20 42 59 68 87 33 35 49 60 50 80 3 44 -13 41 -63 -12z"/>
<path d="M201 732 c-36 -46 -94 -159 -87 -170 7 -11 117 -6 125 6 7 12 6 190
-1 198 -3 3 -20 -13 -37 -34z"/>
<path d="M1070 510 c0 -13 33 -21 42 -12 6 6 -1 11 -16 14 -14 3 -26 2 -26 -2z"/>
<path d="M282 472 c-12 -26 -8 -95 6 -100 8 -2 12 12 12 47 0 41 3 49 15 45 8
-4 15 -2 15 4 0 18 -40 21 -48 4z"/>
<path d="M351 467 c-6 -16 -11 -35 -11 -43 0 -9 -5 -24 -10 -35 -8 -15 -7 -19
4 -19 8 0 18 16 23 38 l10 37 12 -42 c9 -34 15 -40 31 -36 11 3 20 11 20 18 0
17 29 13 40 -5 17 -28 21 -1 7 46 -18 63 -43 70 -52 15 -9 -52 -21 -60 -29
-18 -3 19 -13 42 -20 53 -14 18 -15 18 -25 -9z m103 -49 c-10 -16 -22 -7 -17
13 4 15 8 17 14 8 4 -7 5 -17 3 -21z"/>
<path d="M514 475 c-10 -7 -16 -17 -12 -21 4 -4 14 -1 22 5 11 9 16 9 21 0 4
-6 2 -15 -6 -19 -10 -7 -10 -11 0 -24 17 -20 4 -41 -15 -25 -8 6 -17 9 -21 6
-10 -11 17 -35 35 -32 9 2 20 4 24 4 4 1 7 24 6 51 0 58 -21 80 -54 55z"/>
<path d="M607 477 c-33 -27 -23 -111 13 -113 38 -1 66 67 42 102 -12 18 -39
23 -55 11z m38 -66 c-4 -18 -12 -30 -18 -28 -14 4 -21 51 -12 75 5 14 7 14 21
0 12 -11 14 -25 9 -47z"/>
<path d="M688 446 c-5 -68 0 -86 25 -82 12 3 28 5 34 5 9 1 12 18 10 53 -2 50
-3 52 -34 59 -31 6 -31 5 -35 -35z m52 4 c0 -4 -7 -10 -15 -14 -10 -4 -15 1
-15 14 0 13 5 18 15 14 8 -4 15 -10 15 -14z m-5 -50 c0 -7 -6 -15 -12 -17 -8
-3 -13 4 -13 17 0 13 5 20 13 18 6 -3 12 -11 12 -18z"/>
<path d="M794 476 c-24 -18 -24 -84 1 -102 10 -8 22 -14 26 -14 15 0 39 32 33
42 -5 7 -12 5 -20 -6 -18 -25 -34 -11 -34 29 0 40 12 51 34 30 15 -16 30 -7
18 11 -12 18 -40 23 -58 10z"/>
<path d="M871 425 c-1 -41 3 -55 13 -55 9 0 12 7 9 19 -3 10 0 22 6 25 6 4 13
-4 17 -19 3 -14 12 -25 20 -25 18 0 18 4 -2 41 -12 24 -13 34 -3 45 6 8 9 18
5 22 -4 4 -16 -4 -26 -18 -15 -21 -18 -21 -17 -6 1 10 -3 21 -9 23 -7 2 -12
-16 -13 -52z"/>
<path d="M960 418 l0 -63 20 25 c11 14 20 32 20 40 0 12 2 13 9 1 5 -7 6 -22
4 -32 -4 -13 0 -19 11 -19 13 0 15 10 14 55 -3 62 -16 70 -38 23 l-15 -33 -3
33 c-6 57 -22 34 -22 -30z"/>
<path d="M1059 478 c-1 -2 -2 -27 -3 -55 -1 -36 2 -53 10 -53 7 0 15 9 19 19
3 11 12 24 19 30 10 8 12 4 8 -18 -2 -16 1 -32 7 -35 8 -5 11 12 11 53 0 59
-12 80 -25 42 -3 -11 -12 -24 -19 -30 -11 -9 -12 -6 -9 13 3 13 0 27 -6 30 -6
4 -12 6 -12 4z"/>
<path d="M492 321 c-20 -13 -20 -72 1 -85 14 -9 20 -8 27 4 16 25 11 52 -10
57 -19 5 -20 6 -3 19 19 14 7 19 -15 5z m18 -51 c0 -11 -4 -20 -10 -20 -5 0
-10 9 -10 20 0 11 5 20 10 20 6 0 10 -9 10 -20z"/>
<path d="M1090 319 c0 -5 9 -9 20 -9 11 0 20 2 20 4 0 2 -9 6 -20 9 -11 3 -20
1 -20 -4z"/>
<path d="M279 300 c-7 -26 -6 -61 2 -65 5 -4 9 2 9 12 1 17 1 17 15 -1 13 -16
14 -15 12 18 -2 33 -17 53 -17 24 0 -9 -4 -8 -10 2 -5 8 -10 13 -11 10z"/>
<path d="M330 270 c0 -37 27 -52 46 -25 13 17 14 17 20 1 5 -14 9 -15 15 -4 7
11 9 11 9 -1 0 -10 3 -11 14 -2 11 9 15 9 19 -1 2 -7 6 4 8 25 4 26 1 37 -8
37 -12 0 -17 -13 -14 -33 1 -5 -3 -6 -9 -2 -5 3 -10 13 -10 21 0 9 -6 14 -12
11 -7 -2 -12 -10 -10 -16 1 -6 -2 -11 -8 -11 -5 0 -10 7 -10 15 0 9 -9 15 -25
15 -21 0 -25 -5 -25 -30z m35 -8 c-2 -9 -4 -19 -4 -22 -1 -3 -5 1 -10 9 -10
16 -3 44 9 36 5 -3 7 -13 5 -23z"/>
<path d="M540 263 l0 -36 22 19 c12 10 18 14 15 7 -4 -6 -3 -14 3 -18 6 -4 10
8 10 29 0 35 -13 48 -23 24 -4 -10 -6 -10 -6 0 -1 6 -5 12 -11 12 -5 0 -10
-16 -10 -37z"/>
<path d="M602 270 c1 -33 18 -54 18 -23 1 17 1 17 15 -1 13 -18 14 -17 13 17
-1 30 -4 35 -15 26 -9 -8 -13 -8 -13 0 0 6 -4 11 -9 11 -5 0 -9 -14 -9 -30z"/>
<path d="M664 286 c-9 -24 0 -51 19 -54 12 -3 20 4 24 17 7 28 21 27 19 -1 -3
-36 3 -39 31 -14 32 30 28 60 -11 64 -18 2 -26 0 -21 -7 3 -6 1 -11 -4 -11 -6
0 -11 5 -11 10 0 16 -40 12 -46 -4z m36 -22 c0 -14 -12 -19 -23 -8 -9 9 4 35
14 28 5 -3 9 -12 9 -20z m56 -11 c-11 -11 -19 6 -11 24 8 17 8 17 12 0 3 -10
2 -21 -1 -24z"/>
<path d="M790 266 c0 -26 4 -33 18 -32 9 0 23 8 30 16 8 8 11 10 8 3 -4 -6 -2
-14 4 -18 6 -4 10 8 10 29 0 38 -18 49 -27 16 -3 -11 -9 -17 -14 -15 -4 3 -6
12 -2 20 3 9 -1 15 -11 15 -12 0 -16 -9 -16 -34z"/>
<path d="M874 286 c-9 -24 0 -51 19 -54 12 -3 20 4 24 17 5 19 25 31 22 14 -4
-25 3 -34 24 -31 17 2 22 9 22 33 0 26 -4 30 -29 33 -18 2 -26 0 -21 -7 3 -6
1 -11 -4 -11 -6 0 -11 5 -11 10 0 16 -40 12 -46 -4z m36 -21 c0 -8 -4 -17 -10
-20 -6 -4 -10 5 -10 20 0 15 4 24 10 20 6 -3 10 -12 10 -20z m58 0 c0 -13 -4
-22 -9 -20 -9 6 -8 45 2 45 4 0 7 -11 7 -25z"/>
<path d="M1000 268 c0 -31 3 -35 23 -33 12 1 28 3 35 4 14 1 17 61 2 61 -5 0
-10 -7 -10 -15 0 -19 -9 -19 -32 2 -17 15 -18 14 -18 -19z m30 -18 c0 -5 -2
-10 -4 -10 -3 0 -8 5 -11 10 -3 6 -1 10 4 10 6 0 11 -4 11 -10z"/>
<path d="M1082 265 c0 -35 12 -47 21 -22 4 9 8 8 16 -3 8 -12 11 -6 11 25 -1
37 -2 39 -15 21 -13 -17 -15 -18 -15 -3 0 9 -4 17 -9 17 -5 0 -9 -16 -9 -35z"/>
<path d="M274 168 c-5 -7 -2 -9 8 -5 12 4 15 -1 14 -19 0 -15 -6 -22 -13 -19
-7 2 -13 1 -13 -4 0 -16 13 -20 32 -10 12 7 24 7 31 1 17 -13 42 -1 44 23 4
30 -12 49 -33 40 -18 -7 -18 -8 1 -15 17 -7 17 -9 3 -9 -10 -1 -18 -6 -18 -13
0 -13 -14 -2 -16 13 -1 5 -2 14 -3 19 -1 14 -28 13 -37 -2z m86 -38 c0 -5 -5
-10 -11 -10 -5 0 -7 5 -4 10 3 6 8 10 11 10 2 0 4 -4 4 -10z"/>
<path d="M390 146 c0 -32 3 -36 26 -36 23 0 25 3 22 33 -2 24 -8 33 -25 35
-20 3 -23 -1 -23 -32z m35 14 c3 -5 1 -10 -4 -10 -6 0 -11 5 -11 10 0 6 2 10
4 10 3 0 8 -4 11 -10z m5 -24 c0 -3 -4 -8 -10 -11 -5 -3 -10 -1 -10 4 0 6 5
11 10 11 6 0 10 -2 10 -4z"/>
<path d="M462 168 c-16 -16 -15 -43 2 -57 11 -9 18 -8 30 4 9 9 16 22 16 29 0
12 -19 36 -30 36 -3 0 -11 -5 -18 -12z m28 -28 c0 -11 -4 -20 -10 -20 -5 0
-10 9 -10 20 0 11 5 20 10 20 6 0 10 -9 10 -20z"/>
<path d="M522 141 c-16 -51 -15 -54 9 -40 17 9 23 8 30 -2 13 -21 12 10 -2 50
-14 41 -23 39 -37 -8z m28 -11 c0 -5 -5 -10 -11 -10 -5 0 -7 5 -4 10 3 6 8 10
11 10 2 0 4 -4 4 -10z"/>
</g>
</svg>
